<svg fill="#F25081" xmlns="http://www.w3.org/2000/svg"  viewBox="0 0 24 24" width="24px" height="24px"><path d="M18,3H6C4.346,3,3,4.346,3,6v12c0,1.654,1.346,3,3,3h12c1.654,0,3-1.346,3-3V6C21,4.346,19.654,3,18,3z M16.238,13.805	c0,0.815-0.49,2.356-2.344,2.356c-0.755,0-1.848-0.59-1.848-1.656c0-0.971,0.788-1.976,2.106-1.976c0.412,0,0.412-0.091,0.412-0.333	c0-0.147-0.032-1.743-0.032-1.743l-3.788,0.779v3.864c0,0.862-0.584,2.144-2.193,2.144c-1.21,0-1.933-0.651-1.933-1.742	c0-1.003,1.045-1.916,2.192-1.916c0.304,0,0.304-0.117,0.304-0.173c0-0.363,0.02-4.599,0.02-4.599	C9.138,8.31,9.497,7.876,9.989,7.779l5.036-1c0.295-0.059,0.603,0.016,0.842,0.211l0,0c0.235,0.194,0.37,0.479,0.37,0.784V13.805z"/></svg>